<svg xmlns="http://www.w3.org/2000/svg" viewBox="0 0 800 600" preserveAspectRatio="xMidYMid slice"><defs>
  <linearGradient id="bgd" x1="0" y1="0" x2="1" y2="1"><stop offset="0" stop-color="#7D03FC"/><stop offset=".55" stop-color="#4A0BC0"/><stop offset="1" stop-color="#1C0A55"/></linearGradient>
  <radialGradient id="glowd" cx=".5" cy=".5" r=".5"><stop offset="0" stop-color="#7D03FC" stop-opacity=".85"/><stop offset=".45" stop-color="#7D03FC" stop-opacity=".28"/><stop offset="1" stop-color="#7D03FC" stop-opacity="0"/></radialGradient>
  <pattern id="dotsd" width="12" height="12" patternUnits="userSpaceOnUse"><circle cx="3" cy="3" r="1.6" fill="#FFFFFF"/></pattern>
  <linearGradient id="faded" x1="0" y1="0" x2="1" y2="0"><stop offset="0" stop-color="#fff" stop-opacity="0"/><stop offset=".55" stop-color="#fff" stop-opacity=".0"/><stop offset="1" stop-color="#fff" stop-opacity=".9"/></linearGradient>
  <mask id="dmd"><rect width="100%" height="100%" fill="url(#faded)"/></mask>
  <linearGradient id="streakd" x1="0" y1="0" x2="1" y2="0"><stop offset="0" stop-color="#fff" stop-opacity="0"/><stop offset="1" stop-color="#fff" stop-opacity=".35"/></linearGradient>
  <linearGradient id="streakvd" x1="0" y1="0" x2="1" y2="0"><stop offset="0" stop-color="#7D03FC" stop-opacity="0"/><stop offset="1" stop-color="#7D03FC" stop-opacity=".9"/></linearGradient>
  <linearGradient id="whited" x1="0" y1="0" x2="0" y2="1"><stop offset="0" stop-color="#FFFFFF"/><stop offset=".6" stop-color="#E9ECF3"/><stop offset="1" stop-color="#B9C0CF"/></linearGradient>
  <linearGradient id="whiteSided" x1="0" y1="0" x2="1" y2="0"><stop offset="0" stop-color="#C8CEDB"/><stop offset=".35" stop-color="#FFFFFF"/><stop offset="1" stop-color="#AEB6C6"/></linearGradient>
  <linearGradient id="metald" x1="0" y1="0" x2="1" y2="1"><stop offset="0" stop-color="#4A5366"/><stop offset=".45" stop-color="#232A38"/><stop offset="1" stop-color="#0C1019"/></linearGradient>
  <linearGradient id="metalHd" x1="0" y1="0" x2="1" y2="0"><stop offset="0" stop-color="#151A25"/><stop offset=".3" stop-color="#5A6478"/><stop offset=".55" stop-color="#262D3B"/><stop offset="1" stop-color="#0E121B"/></linearGradient>
  <linearGradient id="screend" x1="0" y1="0" x2="1" y2="1"><stop offset="0" stop-color="#9B4DFF"/><stop offset=".5" stop-color="#5B12E0"/><stop offset="1" stop-color="#1A0B5C"/></linearGradient>
  <linearGradient id="rimd" x1="0" y1="0" x2="1" y2="0"><stop offset="0" stop-color="#7D03FC" stop-opacity="0"/><stop offset=".5" stop-color="#C79BFF"/><stop offset="1" stop-color="#7D03FC" stop-opacity="0"/></linearGradient>
  <filter id="blurd" x="-50%" y="-50%" width="200%" height="200%"><feGaussianBlur stdDeviation="14"/></filter>
  <filter id="softd" x="-50%" y="-50%" width="200%" height="200%"><feGaussianBlur stdDeviation="5"/></filter>
  <filter id="shadowd" x="-30%" y="-30%" width="160%" height="180%"><feDropShadow dx="0" dy="22" stdDeviation="18" flood-color="#000" flood-opacity=".45"/></filter>
</defs><rect width="800" height="600" fill="url(#bgd)"/><rect width="800" height="600" fill="url(#dotsd)" mask="url(#dmd)" opacity="0.22"/><circle cx="480.0" cy="300.0" r="270.0" fill="url(#glowd)"/><rect x="343.99999999999994" y="108.0" width="440.00000000000006" height="4.8" rx="3" fill="url(#streakd)" opacity="1" transform="skewX(-20)"/><rect x="504.0" y="144.0" width="280.0" height="4.8" rx="3" fill="url(#streakd)" opacity="0.7" transform="skewX(-20)"/><rect x="424.0" y="468.0" width="360.0" height="4.8" rx="3" fill="url(#streakd)" opacity="0.8" transform="skewX(-20)"/><rect x="584.0" y="504.0" width="200.0" height="4.8" rx="3" fill="url(#streakd)" opacity="0.6" transform="skewX(-20)"/><g transform="translate(470 300) scale(1.15)" filter="url(#shadowd)">
 <g fill="#7D03FC"><rect x="-330" y="-70" width="190" height="26" rx="13"/><rect x="-270" y="-14" width="130" height="26" rx="13"/><rect x="-220" y="42" width="80" height="26" rx="13"/></g>
 <path d="M-120 -110 H90 L190 0 L90 110 H-120 Q-140 110 -140 90 V-90 Q-140 -110 -120 -110 Z" fill="#fff"/>
 <path d="M-120 -110 H90 L190 0 L90 110 H-120 Q-140 110 -140 90 V-90 Q-140 -110 -120 -110 Z" fill="url(#screend)" opacity=".0"/>
 <circle cx="96" cy="0" r="22" fill="#7D03FC"/>
 <text x="-30" y="34" font-family="Arial Black, Arial, sans-serif" font-weight="900" font-size="104" fill="#7D03FC" text-anchor="middle" font-style="italic">%</text>
</g></svg>