<svg xmlns="http://www.w3.org/2000/svg" viewBox="0 0 800 600" preserveAspectRatio="xMidYMid slice"><defs>
  <linearGradient id="bgb" x1="0" y1="0" x2="1" y2="1"><stop offset="0" stop-color="#F4F2FB"/><stop offset=".55" stop-color="#E6E3F3"/><stop offset="1" stop-color="#D9D6EA"/></linearGradient>
  <radialGradient id="glowb" cx=".5" cy=".5" r=".5"><stop offset="0" stop-color="#7D03FC" stop-opacity=".85"/><stop offset=".45" stop-color="#7D03FC" stop-opacity=".28"/><stop offset="1" stop-color="#7D03FC" stop-opacity="0"/></radialGradient>
  <pattern id="dotsb" width="12" height="12" patternUnits="userSpaceOnUse"><circle cx="3" cy="3" r="1.6" fill="#7D03FC"/></pattern>
  <linearGradient id="fadeb" x1="0" y1="0" x2="1" y2="0"><stop offset="0" stop-color="#fff" stop-opacity="0"/><stop offset=".55" stop-color="#fff" stop-opacity=".0"/><stop offset="1" stop-color="#fff" stop-opacity=".9"/></linearGradient>
  <mask id="dmb"><rect width="100%" height="100%" fill="url(#fadeb)"/></mask>
  <linearGradient id="streakb" x1="0" y1="0" x2="1" y2="0"><stop offset="0" stop-color="#fff" stop-opacity="0"/><stop offset="1" stop-color="#fff" stop-opacity=".0"/></linearGradient>
  <linearGradient id="streakvb" x1="0" y1="0" x2="1" y2="0"><stop offset="0" stop-color="#7D03FC" stop-opacity="0"/><stop offset="1" stop-color="#7D03FC" stop-opacity=".9"/></linearGradient>
  <linearGradient id="whiteb" x1="0" y1="0" x2="0" y2="1"><stop offset="0" stop-color="#FFFFFF"/><stop offset=".6" stop-color="#E9ECF3"/><stop offset="1" stop-color="#B9C0CF"/></linearGradient>
  <linearGradient id="whiteSideb" x1="0" y1="0" x2="1" y2="0"><stop offset="0" stop-color="#C8CEDB"/><stop offset=".35" stop-color="#FFFFFF"/><stop offset="1" stop-color="#AEB6C6"/></linearGradient>
  <linearGradient id="metalb" x1="0" y1="0" x2="1" y2="1"><stop offset="0" stop-color="#4A5366"/><stop offset=".45" stop-color="#232A38"/><stop offset="1" stop-color="#0C1019"/></linearGradient>
  <linearGradient id="metalHb" x1="0" y1="0" x2="1" y2="0"><stop offset="0" stop-color="#151A25"/><stop offset=".3" stop-color="#5A6478"/><stop offset=".55" stop-color="#262D3B"/><stop offset="1" stop-color="#0E121B"/></linearGradient>
  <linearGradient id="screenb" x1="0" y1="0" x2="1" y2="1"><stop offset="0" stop-color="#9B4DFF"/><stop offset=".5" stop-color="#5B12E0"/><stop offset="1" stop-color="#1A0B5C"/></linearGradient>
  <linearGradient id="rimb" x1="0" y1="0" x2="1" y2="0"><stop offset="0" stop-color="#7D03FC" stop-opacity="0"/><stop offset=".5" stop-color="#C79BFF"/><stop offset="1" stop-color="#7D03FC" stop-opacity="0"/></linearGradient>
  <filter id="blurb" x="-50%" y="-50%" width="200%" height="200%"><feGaussianBlur stdDeviation="14"/></filter>
  <filter id="softb" x="-50%" y="-50%" width="200%" height="200%"><feGaussianBlur stdDeviation="5"/></filter>
  <filter id="shadowb" x="-30%" y="-30%" width="160%" height="180%"><feDropShadow dx="0" dy="22" stdDeviation="18" flood-color="#000" flood-opacity=".22"/></filter>
</defs><rect width="800" height="600" fill="url(#bgb)"/><rect width="800" height="600" fill="url(#dotsb)" mask="url(#dmb)" opacity="0.18"/><circle cx="440.00000000000006" cy="300.0" r="270.0" fill="url(#glowb)"/><rect x="343.99999999999994" y="108.0" width="440.00000000000006" height="4.8" rx="3" fill="url(#streakb)" opacity="1" transform="skewX(-20)"/><rect x="504.0" y="144.0" width="280.0" height="4.8" rx="3" fill="url(#streakb)" opacity="0.7" transform="skewX(-20)"/><rect x="424.0" y="468.0" width="360.0" height="4.8" rx="3" fill="url(#streakb)" opacity="0.8" transform="skewX(-20)"/><rect x="584.0" y="504.0" width="200.0" height="4.8" rx="3" fill="url(#streakb)" opacity="0.6" transform="skewX(-20)"/><g transform="translate(430 320) scale(1.2)" filter="url(#shadowb)">
 <g transform="translate(-230 -20)"><path d="M0 0 L120.0 -44.0 L240 0 L120.0 44.0 Z" fill="#EDEAF7"/><path d="M0 0 L120.0 44.0 V200 L0 156.0 Z" fill="#C8C2E0"/><path d="M240 0 L120.0 44.0 V200 L240 156.0 Z" fill="#C8C2E0" opacity=".75"/></g>
 <g transform="translate(-40 10)"><path d="M0 0 L110.0 -39.6 L220 0 L110.0 39.6 Z" fill="#FFFFFF"/><path d="M0 0 L110.0 39.6 V180 L0 140.4 Z" fill="#D9D4EC"/><path d="M220 0 L110.0 39.6 V180 L220 140.4 Z" fill="#D9D4EC" opacity=".75"/></g>
 <g transform="translate(-150 -200)"><path d="M0 0 L110.0 -37.4 L220 0 L110.0 37.4 Z" fill="#B57CFF"/><path d="M0 0 L110.0 37.4 V170 L0 132.6 Z" fill="#7D03FC"/><path d="M220 0 L110.0 37.4 V170 L220 132.6 Z" fill="#7D03FC" opacity=".75"/></g>
 <rect x="-62" y="-196" width="16" height="140" fill="#fff" opacity=".6" transform="skewY(-24)"/>
</g></svg>