<svg xmlns="http://www.w3.org/2000/svg" viewBox="0 0 600 500"><defs>
<radialGradient id="gillwishlis" cx=".5" cy=".5" r=".5"><stop offset="0" stop-color="#7D03FC" stop-opacity=".55"/><stop offset=".5" stop-color="#7D03FC" stop-opacity=".18"/><stop offset="1" stop-color="#7D03FC" stop-opacity="0"/></radialGradient>
<linearGradient id="willwishlis" x1="0" y1="0" x2="0" y2="1"><stop offset="0" stop-color="#FFFFFF"/><stop offset=".6" stop-color="#E9ECF3"/><stop offset="1" stop-color="#B9C0CF"/></linearGradient>
<linearGradient id="wsillwishlis" x1="0" y1="0" x2="1" y2="0"><stop offset="0" stop-color="#C8CEDB"/><stop offset=".35" stop-color="#FFFFFF"/><stop offset="1" stop-color="#AEB6C6"/></linearGradient>
<linearGradient id="millwishlis" x1="0" y1="0" x2="1" y2="1"><stop offset="0" stop-color="#4A5366"/><stop offset=".45" stop-color="#232A38"/><stop offset="1" stop-color="#0C1019"/></linearGradient>
<linearGradient id="mhillwishlis" x1="0" y1="0" x2="1" y2="0"><stop offset="0" stop-color="#151A25"/><stop offset=".3" stop-color="#5A6478"/><stop offset=".55" stop-color="#262D3B"/><stop offset="1" stop-color="#0E121B"/></linearGradient>
<linearGradient id="scillwishlis" x1="0" y1="0" x2="1" y2="1"><stop offset="0" stop-color="#9B4DFF"/><stop offset=".5" stop-color="#5B12E0"/><stop offset="1" stop-color="#1A0B5C"/></linearGradient>
<linearGradient id="vlillwishlis" x1="0" y1="0" x2="0" y2="1"><stop offset="0" stop-color="#B57CFF"/><stop offset="1" stop-color="#7D03FC"/></linearGradient>
<linearGradient id="tanillwishlis" x1="0" y1="0" x2="1" y2="0"><stop offset="0" stop-color="#A88B62"/><stop offset=".5" stop-color="#D9C39C"/><stop offset="1" stop-color="#9B7E55"/></linearGradient>
<linearGradient id="cardillwishlis" x1="0" y1="0" x2="1" y2="1"><stop offset="0" stop-color="#FFFFFF"/><stop offset="1" stop-color="#E4E1F5"/></linearGradient>
<linearGradient id="kraftillwishlis" x1="0" y1="0" x2="1" y2="1"><stop offset="0" stop-color="#E8C79A"/><stop offset="1" stop-color="#B98B55"/></linearGradient>
<filter id="billwishlis" x="-50%" y="-50%" width="200%" height="200%"><feGaussianBlur stdDeviation="12"/></filter>
<filter id="sillwishlis" x="-50%" y="-50%" width="200%" height="200%"><feGaussianBlur stdDeviation="4"/></filter>
<filter id="dillwishlis" x="-40%" y="-40%" width="180%" height="200%"><feDropShadow dx="0" dy="18" stdDeviation="14" flood-color="#0B0620" flood-opacity=".35"/></filter>
</defs><circle cx="300" cy="250" r="230" fill="url(#gillwishlis)"/><g transform="translate(280 250) rotate(-6) scale(0.95)" filter="url(#dillwishlis)"><path d="M0 150 C -60 110, -200 30, -200 -60 C -200 -130, -140 -170, -90 -170 C -50 -170, -20 -150, 0 -120 C 20 -150, 50 -170, 90 -170 C 140 -170, 200 -130, 200 -60 C 200 30, 60 110, 0 150 Z" fill="url(#vlillwishlis)"/>
<path d="M-150 -90 C -150 -130, -110 -145, -85 -140" fill="none" stroke="#fff" stroke-opacity=".6" stroke-width="18" stroke-linecap="round"/></g><g transform="translate(470 380) rotate(10) scale(0.4)" filter="url(#dillwishlis)"><g fill="#7D03FC"><rect x="-330" y="-70" width="190" height="26" rx="13"/><rect x="-270" y="-14" width="130" height="26" rx="13"/><rect x="-220" y="42" width="80" height="26" rx="13"/></g>
<path d="M-120 -110 H90 L190 0 L90 110 H-120 Q-140 110 -140 90 V-90 Q-140 -110 -120 -110 Z" fill="url(#cardillwishlis)"/><circle cx="96" cy="0" r="22" fill="#7D03FC"/>
<text x="-30" y="36" font-family="Arial Black, Arial, sans-serif" font-weight="900" font-size="104" fill="#7D03FC" text-anchor="middle" font-style="italic">%</text></g><g transform="translate(480 110) rotate(0) scale(0.55)"><path d="M0 -40 Q6 -6 40 0 Q6 6 0 40 Q-6 6 -40 0 Q-6 -6 0 -40 Z" fill="#fff"/></g><g transform="translate(110 380) rotate(0) scale(0.4)"><path d="M0 -40 Q6 -6 40 0 Q6 6 0 40 Q-6 6 -40 0 Q-6 -6 0 -40 Z" fill="#fff"/></g></svg>