<svg xmlns="http://www.w3.org/2000/svg" viewBox="0 0 600 500"><defs>
<radialGradient id="gillblogtra" cx=".5" cy=".5" r=".5"><stop offset="0" stop-color="#7D03FC" stop-opacity=".55"/><stop offset=".5" stop-color="#7D03FC" stop-opacity=".18"/><stop offset="1" stop-color="#7D03FC" stop-opacity="0"/></radialGradient>
<linearGradient id="willblogtra" x1="0" y1="0" x2="0" y2="1"><stop offset="0" stop-color="#FFFFFF"/><stop offset=".6" stop-color="#E9ECF3"/><stop offset="1" stop-color="#B9C0CF"/></linearGradient>
<linearGradient id="wsillblogtra" x1="0" y1="0" x2="1" y2="0"><stop offset="0" stop-color="#C8CEDB"/><stop offset=".35" stop-color="#FFFFFF"/><stop offset="1" stop-color="#AEB6C6"/></linearGradient>
<linearGradient id="millblogtra" x1="0" y1="0" x2="1" y2="1"><stop offset="0" stop-color="#4A5366"/><stop offset=".45" stop-color="#232A38"/><stop offset="1" stop-color="#0C1019"/></linearGradient>
<linearGradient id="mhillblogtra" x1="0" y1="0" x2="1" y2="0"><stop offset="0" stop-color="#151A25"/><stop offset=".3" stop-color="#5A6478"/><stop offset=".55" stop-color="#262D3B"/><stop offset="1" stop-color="#0E121B"/></linearGradient>
<linearGradient id="scillblogtra" x1="0" y1="0" x2="1" y2="1"><stop offset="0" stop-color="#9B4DFF"/><stop offset=".5" stop-color="#5B12E0"/><stop offset="1" stop-color="#1A0B5C"/></linearGradient>
<linearGradient id="vlillblogtra" x1="0" y1="0" x2="0" y2="1"><stop offset="0" stop-color="#B57CFF"/><stop offset="1" stop-color="#7D03FC"/></linearGradient>
<linearGradient id="tanillblogtra" x1="0" y1="0" x2="1" y2="0"><stop offset="0" stop-color="#A88B62"/><stop offset=".5" stop-color="#D9C39C"/><stop offset="1" stop-color="#9B7E55"/></linearGradient>
<linearGradient id="cardillblogtra" x1="0" y1="0" x2="1" y2="1"><stop offset="0" stop-color="#FFFFFF"/><stop offset="1" stop-color="#E4E1F5"/></linearGradient>
<linearGradient id="kraftillblogtra" x1="0" y1="0" x2="1" y2="1"><stop offset="0" stop-color="#E8C79A"/><stop offset="1" stop-color="#B98B55"/></linearGradient>
<filter id="billblogtra" x="-50%" y="-50%" width="200%" height="200%"><feGaussianBlur stdDeviation="12"/></filter>
<filter id="sillblogtra" x="-50%" y="-50%" width="200%" height="200%"><feGaussianBlur stdDeviation="4"/></filter>
<filter id="dillblogtra" x="-40%" y="-40%" width="180%" height="200%"><feDropShadow dx="0" dy="18" stdDeviation="14" flood-color="#0B0620" flood-opacity=".35"/></filter>
</defs><circle cx="300" cy="250" r="230" fill="url(#gillblogtra)"/><g transform="translate(250 280) rotate(0) scale(0.95)" filter="url(#dillblogtra)"><circle cx="0" cy="0" r="54" fill="none" stroke="#C8CEDB" stroke-width="12"/>
<g transform="rotate(30)"><rect x="40" y="-22" width="44" height="44" rx="14" fill="url(#tanillblogtra)"/><rect x="80" y="-11" width="150" height="22" rx="6" fill="url(#tanillblogtra)"/><path d="M180 11 v22 h14 v-12 h12 v16 h14 v-26" fill="url(#tanillblogtra)"/><circle cx="62" cy="0" r="9" fill="#5B4630"/></g>
<g transform="rotate(130)"><rect x="40" y="-24" width="50" height="48" rx="20" fill="url(#wsillblogtra)"/><rect x="86" y="-10" width="130" height="20" rx="6" fill="url(#wsillblogtra)"/><path d="M170 10 v18 h12 v-10 h12 v14 h12 v-22" fill="url(#wsillblogtra)"/><circle cx="64" cy="0" r="9" fill="#8A93A6"/></g></g><g transform="translate(430 190) rotate(0) scale(0.5)" filter="url(#dillblogtra)"><path d="M60 -120 q60 -40 90 10 q20 40 -30 70" fill="none" stroke="url(#tanillblogtra)" stroke-width="22" stroke-linecap="round"/>
<circle cx="0" cy="0" r="110" fill="url(#willblogtra)"/><circle cx="0" cy="0" r="86" fill="#F4F6FA"/><circle cx="0" cy="0" r="86" fill="none" stroke="#D9DEE7" stroke-width="3"/>
<circle cx="0" cy="0" r="26" fill="#C3C9D6"/><circle cx="0" cy="0" r="12" fill="#7D03FC"/>
<g stroke="#7D03FC" stroke-opacity=".55" stroke-width="5" fill="none"><circle r="140"/><circle r="170" stroke-opacity=".3"/></g></g><g transform="translate(480 380) rotate(0) scale(0.32)" filter="url(#dillblogtra)"><ellipse cx="0" cy="170" rx="80" ry="18" fill="#000" opacity=".2" filter="url(#sillblogtra)"/><path d="M0 -160 c-80 0 -126 60 -126 120 c0 92 126 200 126 200 s126 -108 126 -200 c0 -60 -46 -120 -126 -120z" fill="url(#vlillblogtra)"/><circle cx="0" cy="-40" r="46" fill="#fff"/></g></svg>