<svg xmlns="http://www.w3.org/2000/svg" viewBox="0 0 600 500"><defs>
<radialGradient id="gillblogcha" cx=".5" cy=".5" r=".5"><stop offset="0" stop-color="#7D03FC" stop-opacity=".55"/><stop offset=".5" stop-color="#7D03FC" stop-opacity=".18"/><stop offset="1" stop-color="#7D03FC" stop-opacity="0"/></radialGradient>
<linearGradient id="willblogcha" x1="0" y1="0" x2="0" y2="1"><stop offset="0" stop-color="#FFFFFF"/><stop offset=".6" stop-color="#E9ECF3"/><stop offset="1" stop-color="#B9C0CF"/></linearGradient>
<linearGradient id="wsillblogcha" x1="0" y1="0" x2="1" y2="0"><stop offset="0" stop-color="#C8CEDB"/><stop offset=".35" stop-color="#FFFFFF"/><stop offset="1" stop-color="#AEB6C6"/></linearGradient>
<linearGradient id="millblogcha" x1="0" y1="0" x2="1" y2="1"><stop offset="0" stop-color="#4A5366"/><stop offset=".45" stop-color="#232A38"/><stop offset="1" stop-color="#0C1019"/></linearGradient>
<linearGradient id="mhillblogcha" x1="0" y1="0" x2="1" y2="0"><stop offset="0" stop-color="#151A25"/><stop offset=".3" stop-color="#5A6478"/><stop offset=".55" stop-color="#262D3B"/><stop offset="1" stop-color="#0E121B"/></linearGradient>
<linearGradient id="scillblogcha" x1="0" y1="0" x2="1" y2="1"><stop offset="0" stop-color="#9B4DFF"/><stop offset=".5" stop-color="#5B12E0"/><stop offset="1" stop-color="#1A0B5C"/></linearGradient>
<linearGradient id="vlillblogcha" x1="0" y1="0" x2="0" y2="1"><stop offset="0" stop-color="#B57CFF"/><stop offset="1" stop-color="#7D03FC"/></linearGradient>
<linearGradient id="tanillblogcha" x1="0" y1="0" x2="1" y2="0"><stop offset="0" stop-color="#A88B62"/><stop offset=".5" stop-color="#D9C39C"/><stop offset="1" stop-color="#9B7E55"/></linearGradient>
<linearGradient id="cardillblogcha" x1="0" y1="0" x2="1" y2="1"><stop offset="0" stop-color="#FFFFFF"/><stop offset="1" stop-color="#E4E1F5"/></linearGradient>
<linearGradient id="kraftillblogcha" x1="0" y1="0" x2="1" y2="1"><stop offset="0" stop-color="#E8C79A"/><stop offset="1" stop-color="#B98B55"/></linearGradient>
<filter id="billblogcha" x="-50%" y="-50%" width="200%" height="200%"><feGaussianBlur stdDeviation="12"/></filter>
<filter id="sillblogcha" x="-50%" y="-50%" width="200%" height="200%"><feGaussianBlur stdDeviation="4"/></filter>
<filter id="dillblogcha" x="-40%" y="-40%" width="180%" height="200%"><feDropShadow dx="0" dy="18" stdDeviation="14" flood-color="#0B0620" flood-opacity=".35"/></filter>
</defs><circle cx="300" cy="250" r="230" fill="url(#gillblogcha)"/><g transform="translate(200 280) rotate(0) scale(0.85)" filter="url(#dillblogcha)"><rect x="-90" y="-90" width="180" height="180" rx="34" fill="url(#willblogcha)"/><rect x="-90" y="-90" width="180" height="180" rx="34" fill="none" stroke="#C8CEDB" stroke-width="3"/>
<rect x="-24" y="-20" width="48" height="16" rx="8" fill="#1B1F2A"/><path d="M8 20 L-10 46 H4 L-2 66 L16 38 H2 Z" fill="#7D03FC"/>
<rect x="-50" y="-140" width="16" height="54" rx="4" fill="#9AA3B5"/><rect x="34" y="-140" width="16" height="54" rx="4" fill="#9AA3B5"/></g><g transform="translate(400 320) rotate(-20) scale(0.6)" filter="url(#dillblogcha)"><path d="M-160 60 C -160 -60, -40 -100, 0 -30 S 140 60, 160 -60" fill="none" stroke="#F1F3F7" stroke-width="20" stroke-linecap="round"/>
<path d="M-160 60 C -160 -60, -40 -100, 0 -30 S 140 60, 160 -60" fill="none" stroke="#C8CEDB" stroke-width="4" stroke-linecap="round" transform="translate(0 6)" opacity=".6"/>
<g transform="translate(-160 90)"><rect x="-22" y="-40" width="44" height="70" rx="10" fill="url(#wsillblogcha)"/><rect x="-14" y="30" width="28" height="22" rx="6" fill="#9AA3B5"/></g>
<g transform="translate(160 -90) rotate(180)"><rect x="-22" y="-40" width="44" height="70" rx="10" fill="url(#wsillblogcha)"/><rect x="-14" y="30" width="28" height="22" rx="6" fill="#9AA3B5"/></g></g><g transform="translate(440 170) rotate(10) scale(0.42)" filter="url(#dillblogcha)"><rect x="-92" y="-180" width="184" height="360" rx="36" fill="#0B0F18"/>
<rect x="-84" y="-172" width="168" height="344" rx="30" fill="url(#scillblogcha)"/>
<rect x="-30" y="-162" width="60" height="16" rx="8" fill="#0B0F18"/><path d="M8 -50 L-38 18 H0 L-12 86 L42 0 H6 Z" fill="#fff"/>
<path d="M-84 -60 L84 -150 V-110 L-84 -20 Z" fill="#fff" opacity=".07"/></g></svg>