<svg xmlns="http://www.w3.org/2000/svg" viewBox="0 0 600 500"><defs>
<radialGradient id="gillcolacce" cx=".5" cy=".5" r=".5"><stop offset="0" stop-color="#7D03FC" stop-opacity=".55"/><stop offset=".5" stop-color="#7D03FC" stop-opacity=".18"/><stop offset="1" stop-color="#7D03FC" stop-opacity="0"/></radialGradient>
<linearGradient id="willcolacce" x1="0" y1="0" x2="0" y2="1"><stop offset="0" stop-color="#FFFFFF"/><stop offset=".6" stop-color="#E9ECF3"/><stop offset="1" stop-color="#B9C0CF"/></linearGradient>
<linearGradient id="wsillcolacce" x1="0" y1="0" x2="1" y2="0"><stop offset="0" stop-color="#C8CEDB"/><stop offset=".35" stop-color="#FFFFFF"/><stop offset="1" stop-color="#AEB6C6"/></linearGradient>
<linearGradient id="millcolacce" x1="0" y1="0" x2="1" y2="1"><stop offset="0" stop-color="#4A5366"/><stop offset=".45" stop-color="#232A38"/><stop offset="1" stop-color="#0C1019"/></linearGradient>
<linearGradient id="mhillcolacce" x1="0" y1="0" x2="1" y2="0"><stop offset="0" stop-color="#151A25"/><stop offset=".3" stop-color="#5A6478"/><stop offset=".55" stop-color="#262D3B"/><stop offset="1" stop-color="#0E121B"/></linearGradient>
<linearGradient id="scillcolacce" x1="0" y1="0" x2="1" y2="1"><stop offset="0" stop-color="#9B4DFF"/><stop offset=".5" stop-color="#5B12E0"/><stop offset="1" stop-color="#1A0B5C"/></linearGradient>
<linearGradient id="vlillcolacce" x1="0" y1="0" x2="0" y2="1"><stop offset="0" stop-color="#B57CFF"/><stop offset="1" stop-color="#7D03FC"/></linearGradient>
<linearGradient id="tanillcolacce" x1="0" y1="0" x2="1" y2="0"><stop offset="0" stop-color="#A88B62"/><stop offset=".5" stop-color="#D9C39C"/><stop offset="1" stop-color="#9B7E55"/></linearGradient>
<linearGradient id="cardillcolacce" x1="0" y1="0" x2="1" y2="1"><stop offset="0" stop-color="#FFFFFF"/><stop offset="1" stop-color="#E4E1F5"/></linearGradient>
<linearGradient id="kraftillcolacce" x1="0" y1="0" x2="1" y2="1"><stop offset="0" stop-color="#E8C79A"/><stop offset="1" stop-color="#B98B55"/></linearGradient>
<filter id="billcolacce" x="-50%" y="-50%" width="200%" height="200%"><feGaussianBlur stdDeviation="12"/></filter>
<filter id="sillcolacce" x="-50%" y="-50%" width="200%" height="200%"><feGaussianBlur stdDeviation="4"/></filter>
<filter id="dillcolacce" x="-40%" y="-40%" width="180%" height="200%"><feDropShadow dx="0" dy="18" stdDeviation="14" flood-color="#0B0620" flood-opacity=".35"/></filter>
</defs><circle cx="300" cy="250" r="230" fill="url(#gillcolacce)"/><g transform="translate(280 300) rotate(0) scale(0.9)" filter="url(#dillcolacce)"><g transform="rotate(-28)"><rect x="-200" y="-36" width="380" height="34" rx="17" fill="url(#wsillcolacce)"/><rect x="-200" y="4" width="380" height="34" rx="17" fill="url(#millcolacce)"/>
<rect x="-80" y="-30" width="250" height="20" rx="8" fill="#DDE2EA"/><rect x="-80" y="8" width="250" height="20" rx="8" fill="#3A4150"/>
<circle cx="-150" cy="-19" r="8" fill="#7D03FC"/><path d="M-200 0 q-40 0 -60 30 q-20 40 10 70" fill="none" stroke="#1B202C" stroke-width="10" stroke-linecap="round"/></g></g><g transform="translate(460 160) rotate(0) scale(0.5)" filter="url(#dillcolacce)"><path d="M60 -120 q60 -40 90 10 q20 40 -30 70" fill="none" stroke="url(#tanillcolacce)" stroke-width="22" stroke-linecap="round"/>
<circle cx="0" cy="0" r="110" fill="url(#willcolacce)"/><circle cx="0" cy="0" r="86" fill="#F4F6FA"/><circle cx="0" cy="0" r="86" fill="none" stroke="#D9DEE7" stroke-width="3"/>
<circle cx="0" cy="0" r="26" fill="#C3C9D6"/><circle cx="0" cy="0" r="12" fill="#7D03FC"/>
<g stroke="#7D03FC" stroke-opacity=".55" stroke-width="5" fill="none"><circle r="140"/><circle r="170" stroke-opacity=".3"/></g></g></svg>