<svg xmlns="http://www.w3.org/2000/svg" viewBox="0 0 600 500"><defs>
<radialGradient id="gillprivacy" cx=".5" cy=".5" r=".5"><stop offset="0" stop-color="#7D03FC" stop-opacity=".55"/><stop offset=".5" stop-color="#7D03FC" stop-opacity=".18"/><stop offset="1" stop-color="#7D03FC" stop-opacity="0"/></radialGradient>
<linearGradient id="willprivacy" x1="0" y1="0" x2="0" y2="1"><stop offset="0" stop-color="#FFFFFF"/><stop offset=".6" stop-color="#E9ECF3"/><stop offset="1" stop-color="#B9C0CF"/></linearGradient>
<linearGradient id="wsillprivacy" x1="0" y1="0" x2="1" y2="0"><stop offset="0" stop-color="#C8CEDB"/><stop offset=".35" stop-color="#FFFFFF"/><stop offset="1" stop-color="#AEB6C6"/></linearGradient>
<linearGradient id="millprivacy" x1="0" y1="0" x2="1" y2="1"><stop offset="0" stop-color="#4A5366"/><stop offset=".45" stop-color="#232A38"/><stop offset="1" stop-color="#0C1019"/></linearGradient>
<linearGradient id="mhillprivacy" x1="0" y1="0" x2="1" y2="0"><stop offset="0" stop-color="#151A25"/><stop offset=".3" stop-color="#5A6478"/><stop offset=".55" stop-color="#262D3B"/><stop offset="1" stop-color="#0E121B"/></linearGradient>
<linearGradient id="scillprivacy" x1="0" y1="0" x2="1" y2="1"><stop offset="0" stop-color="#9B4DFF"/><stop offset=".5" stop-color="#5B12E0"/><stop offset="1" stop-color="#1A0B5C"/></linearGradient>
<linearGradient id="vlillprivacy" x1="0" y1="0" x2="0" y2="1"><stop offset="0" stop-color="#B57CFF"/><stop offset="1" stop-color="#7D03FC"/></linearGradient>
<linearGradient id="tanillprivacy" x1="0" y1="0" x2="1" y2="0"><stop offset="0" stop-color="#A88B62"/><stop offset=".5" stop-color="#D9C39C"/><stop offset="1" stop-color="#9B7E55"/></linearGradient>
<linearGradient id="cardillprivacy" x1="0" y1="0" x2="1" y2="1"><stop offset="0" stop-color="#FFFFFF"/><stop offset="1" stop-color="#E4E1F5"/></linearGradient>
<linearGradient id="kraftillprivacy" x1="0" y1="0" x2="1" y2="1"><stop offset="0" stop-color="#E8C79A"/><stop offset="1" stop-color="#B98B55"/></linearGradient>
<filter id="billprivacy" x="-50%" y="-50%" width="200%" height="200%"><feGaussianBlur stdDeviation="12"/></filter>
<filter id="sillprivacy" x="-50%" y="-50%" width="200%" height="200%"><feGaussianBlur stdDeviation="4"/></filter>
<filter id="dillprivacy" x="-40%" y="-40%" width="180%" height="200%"><feDropShadow dx="0" dy="18" stdDeviation="14" flood-color="#0B0620" flood-opacity=".35"/></filter>
</defs><circle cx="300" cy="250" r="230" fill="url(#gillprivacy)"/><g transform="translate(270 270) rotate(-4) scale(0.95)" filter="url(#dillprivacy)"><path d="M-80 -40 V-100 a80 80 0 0 1 160 0 V-40" fill="none" stroke="url(#wsillprivacy)" stroke-width="34" stroke-linecap="round"/>
<path d="M-80 -40 V-100 a80 80 0 0 1 160 0 V-40" fill="none" stroke="#fff" stroke-opacity=".5" stroke-width="8" stroke-linecap="round" transform="translate(-8 0)"/>
<rect x="-140" y="-50" width="280" height="230" rx="40" fill="url(#vlillprivacy)"/>
<rect x="-140" y="-50" width="280" height="60" rx="30" fill="#fff" opacity=".14"/>
<circle cx="0" cy="50" r="30" fill="#fff"/><path d="M-12 60 L-18 120 H18 L12 60 Z" fill="#fff"/></g><g transform="translate(460 360) rotate(0) scale(0.55)"><g fill="none" stroke="url(#vlillprivacy)" stroke-width="10" stroke-linecap="round">
<path d="M-70 40 C -80 -40, -30 -90, 20 -80 C 70 -70, 90 -20, 80 40"/>
<path d="M-45 60 C -55 -10, -20 -55, 15 -50 C 50 -45, 60 -5, 55 50"/>
<path d="M-20 80 C -28 20, -10 -20, 12 -18 C 34 -16, 36 20, 30 80"/>
<path d="M6 90 C 4 50, 6 20, 10 10"/></g></g><g transform="translate(470 110) rotate(0) scale(0.5)"><path d="M0 -40 Q6 -6 40 0 Q6 6 0 40 Q-6 6 -40 0 Q-6 -6 0 -40 Z" fill="#fff"/></g><g transform="translate(110 150) rotate(0) scale(0.35)"><path d="M0 -40 Q6 -6 40 0 Q6 6 0 40 Q-6 6 -40 0 Q-6 -6 0 -40 Z" fill="#fff"/></g></svg>