<svg xmlns="http://www.w3.org/2000/svg" viewBox="0 0 600 500"><defs>
<radialGradient id="gillaboutho" cx=".5" cy=".5" r=".5"><stop offset="0" stop-color="#7D03FC" stop-opacity=".55"/><stop offset=".5" stop-color="#7D03FC" stop-opacity=".18"/><stop offset="1" stop-color="#7D03FC" stop-opacity="0"/></radialGradient>
<linearGradient id="willaboutho" x1="0" y1="0" x2="0" y2="1"><stop offset="0" stop-color="#FFFFFF"/><stop offset=".6" stop-color="#E9ECF3"/><stop offset="1" stop-color="#B9C0CF"/></linearGradient>
<linearGradient id="wsillaboutho" x1="0" y1="0" x2="1" y2="0"><stop offset="0" stop-color="#C8CEDB"/><stop offset=".35" stop-color="#FFFFFF"/><stop offset="1" stop-color="#AEB6C6"/></linearGradient>
<linearGradient id="millaboutho" x1="0" y1="0" x2="1" y2="1"><stop offset="0" stop-color="#4A5366"/><stop offset=".45" stop-color="#232A38"/><stop offset="1" stop-color="#0C1019"/></linearGradient>
<linearGradient id="mhillaboutho" x1="0" y1="0" x2="1" y2="0"><stop offset="0" stop-color="#151A25"/><stop offset=".3" stop-color="#5A6478"/><stop offset=".55" stop-color="#262D3B"/><stop offset="1" stop-color="#0E121B"/></linearGradient>
<linearGradient id="scillaboutho" x1="0" y1="0" x2="1" y2="1"><stop offset="0" stop-color="#9B4DFF"/><stop offset=".5" stop-color="#5B12E0"/><stop offset="1" stop-color="#1A0B5C"/></linearGradient>
<linearGradient id="vlillaboutho" x1="0" y1="0" x2="0" y2="1"><stop offset="0" stop-color="#B57CFF"/><stop offset="1" stop-color="#7D03FC"/></linearGradient>
<linearGradient id="tanillaboutho" x1="0" y1="0" x2="1" y2="0"><stop offset="0" stop-color="#A88B62"/><stop offset=".5" stop-color="#D9C39C"/><stop offset="1" stop-color="#9B7E55"/></linearGradient>
<linearGradient id="cardillaboutho" x1="0" y1="0" x2="1" y2="1"><stop offset="0" stop-color="#FFFFFF"/><stop offset="1" stop-color="#E4E1F5"/></linearGradient>
<linearGradient id="kraftillaboutho" x1="0" y1="0" x2="1" y2="1"><stop offset="0" stop-color="#E8C79A"/><stop offset="1" stop-color="#B98B55"/></linearGradient>
<filter id="billaboutho" x="-50%" y="-50%" width="200%" height="200%"><feGaussianBlur stdDeviation="12"/></filter>
<filter id="sillaboutho" x="-50%" y="-50%" width="200%" height="200%"><feGaussianBlur stdDeviation="4"/></filter>
<filter id="dillaboutho" x="-40%" y="-40%" width="180%" height="200%"><feDropShadow dx="0" dy="18" stdDeviation="14" flood-color="#0B0620" flood-opacity=".35"/></filter>
</defs><circle cx="300" cy="250" r="230" fill="url(#gillaboutho)"/><g transform="translate(210 270) rotate(0) scale(0.72)" filter="url(#dillaboutho)"><rect x="-110" y="-60" width="220" height="230" rx="30" fill="url(#millaboutho)"/><rect x="-90" y="-30" width="180" height="40" rx="10" fill="#0A0D14"/>
<text x="0" y="-2" font-family="Arial, sans-serif" font-weight="700" font-size="22" fill="#B57CFF" text-anchor="middle">2:00</text>
<circle cx="-60" cy="40" r="10" fill="#7D03FC"/><rect x="-30" y="34" width="90" height="12" rx="6" fill="#2A3142"/>
<path d="M-80 -60 C -80 -150, 80 -150, 80 -60 Z" fill="#fff" fill-opacity=".18" stroke="#fff" stroke-opacity=".7" stroke-width="5"/>
<path d="M-60 -70 C -50 -120, 50 -120, 60 -70 Z" fill="#F7D2E4"/><path d="M-40 -90 q20 -20 40 0 q20 -20 40 0" fill="none" stroke="#E8A3C4" stroke-width="8" stroke-linecap="round"/>
<rect x="-110" y="150" width="220" height="20" rx="8" fill="#151A25"/></g><g transform="translate(430 330) rotate(0) scale(0.6)" filter="url(#dillaboutho)"><ellipse cx="0" cy="96" rx="150" ry="22" fill="url(#willaboutho)"/><ellipse cx="0" cy="92" rx="120" ry="14" fill="#DCE1EA"/>
<path d="M-100 -40 H100 L86 70 Q82 96 56 96 H-56 Q-82 96 -86 70 Z" fill="url(#willaboutho)"/><path d="M100 -10 q60 4 52 50 q-8 36 -60 28" fill="none" stroke="#E3E7EE" stroke-width="18"/>
<ellipse cx="0" cy="-40" rx="100" ry="20" fill="#6B3B1F"/><ellipse cx="0" cy="-42" rx="70" ry="12" fill="#C89466" opacity=".7"/><path d="M-30 -44 q30 -14 60 0 q-30 10 -60 0" fill="#F2DDC2"/>
<g fill="none" stroke="#fff" stroke-opacity=".55" stroke-width="8" stroke-linecap="round"><path d="M-30 -80 q-20 -30 6 -60 q20 -24 0 -50"/><path d="M20 -84 q-18 -26 6 -52 q18 -22 0 -44"/></g></g></svg>